<?xml version="1.0" ?><svg id="icon" style="enable-background:new 0 0 512 512;" version="1.1" viewBox="0 0 512 512" xml:space="preserve" xmlns="http://www.w3.org/2000/svg" xmlns:xlink="http://www.w3.org/1999/xlink"><path d="M413.6967773,278.7594604c-3.8662109,0-7,3.1337891-7,7c0,83.0947266-67.6025391,150.6967773-150.6962891,150.6967773  c-83.0947266,0-150.6972656-67.6020508-150.6972656-150.6967773s67.6025391-150.6967621,150.6972656-150.6967621h31.5849609  v52.519043c0,2.465332,1.296875,4.7485352,3.4140625,6.0117188c1.1025391,0.6577148,2.34375,0.9882813,3.5859375,0.9882813  c1.1425781,0,2.2871094-0.2792969,3.3261719-0.840332l110.234375-59.519043  c2.2626953-1.222168,3.6738281-3.5874023,3.6738281-6.159668c0-2.5722733-1.4111328-4.9375076-3.6738281-6.1596756  l-110.234375-59.519043c-2.1708984-1.1708984-4.7958984-1.1147461-6.9121094,0.1479492  c-2.1171875,1.2631836-3.4140625,3.5463867-3.4140625,6.0117188v52.519043h-31.5849609  c-90.8144531,0-164.6972656,73.8828201-164.6972656,164.6967773s73.8828125,164.6967773,164.6972656,164.6967773  c90.8134766,0,164.6962891-73.8828125,164.6962891-164.6967773  C420.6967773,281.8932495,417.5629883,278.7594604,413.6967773,278.7594604z M301.5854492,80.278511l88.5009766,47.7841873  l-88.5009766,47.7841797V80.278511z"/></svg>